<svg width="29" height="29" viewBox="0 0 29 29" fill="none" xmlns="http://www.w3.org/2000/svg">
<g clip-path="url(#clip0_45_3)">
<path d="M14.5 0C11.6322 0 8.82874 0.85041 6.44422 2.44369C4.05971 4.03697 2.20121 6.30156 1.10374 8.95109C0.00626735 11.6006 -0.280881 14.5161 0.278605 17.3288C0.83809 20.1415 2.21908 22.7252 4.24694 24.753C6.2748 26.7809 8.85846 28.1619 11.6712 28.7214C14.4839 29.2809 17.3994 28.9937 20.0489 27.8963C22.6984 26.7988 24.963 24.9403 26.5563 22.5558C28.1496 20.1713 29 17.3678 29 14.5C28.9948 10.656 27.4654 6.97085 24.7473 4.2527C22.0291 1.53455 18.344 0.00520169 14.5 0V0ZM21.3813 15.7288H15.7288V21.3814C15.7288 21.7073 15.5993 22.0198 15.3689 22.2503C15.1384 22.4807 14.8259 22.6102 14.5 22.6102C14.1741 22.6102 13.8615 22.4807 13.6311 22.2503C13.4006 22.0198 13.2712 21.7073 13.2712 21.3814V15.7288H7.61864C7.29273 15.7288 6.98018 15.5993 6.74973 15.3689C6.51929 15.1385 6.38982 14.8259 6.38982 14.5C6.38982 14.1741 6.51929 13.8615 6.74973 13.6311C6.98018 13.4007 7.29273 13.2712 7.61864 13.2712H13.2712V7.61864C13.2712 7.29274 13.4006 6.98019 13.6311 6.74974C13.8615 6.51929 14.1741 6.38983 14.5 6.38983C14.8259 6.38983 15.1384 6.51929 15.3689 6.74974C15.5993 6.98019 15.7288 7.29274 15.7288 7.61864V13.2712H21.3813C21.7072 13.2712 22.0198 13.4007 22.2502 13.6311C22.4807 13.8615 22.6102 14.1741 22.6102 14.5C22.6102 14.8259 22.4807 15.1385 22.2502 15.3689C22.0198 15.5993 21.7072 15.7288 21.3813 15.7288V15.7288Z" fill="black"/>
</g>
<defs>
<clipPath id="clip0_45_3">
<rect width="29" height="29" fill="white"/>
</clipPath>
</defs>
</svg>
