<svg width="29" height="30" viewBox="0 0 29 30" fill="none" xmlns="http://www.w3.org/2000/svg">
<g clip-path="url(#clip0_46_2)">
<path d="M27.7545 16.2811H24.0728V14.1886C24.0728 14.0251 24.0406 13.8631 23.978 13.712C23.9154 13.5609 23.8237 13.4236 23.708 13.3079C23.5924 13.1923 23.4551 13.1005 23.304 13.0379C23.1529 12.9754 22.9909 12.9431 22.8273 12.9431H18.4332V8.80313C18.4332 8.4728 18.302 8.15601 18.0685 7.92243C17.8349 7.68886 17.5181 7.55764 17.1878 7.55764H15.4939V4.6133C15.4939 4.28297 15.3627 3.96618 15.1291 3.7326C14.8955 3.49903 14.5787 3.36781 14.2484 3.36781H10.4621V1.24549C10.4621 0.915166 10.3309 0.59837 10.0973 0.364796C9.86374 0.131221 9.54694 0 9.21662 0C8.88629 0 8.5695 0.131221 8.33592 0.364796C8.10235 0.59837 7.97113 0.915166 7.97113 1.24549V3.36781H4.18982C3.85949 3.36781 3.5427 3.49903 3.30912 3.7326C3.07555 3.96618 2.94433 4.28297 2.94433 4.6133V7.55764H1.24548C0.915153 7.55764 0.598358 7.68886 0.364783 7.92243C0.131208 8.15601 -1.28429e-05 8.4728 -1.28429e-05 8.80313V28.1481C-0.000671783 28.3118 0.031094 28.4741 0.0934523 28.6255C0.155811 28.7769 0.247528 28.9145 0.363314 29.0302C0.4791 29.146 0.616663 29.2378 0.768071 29.3001C0.919478 29.3625 1.08173 29.3942 1.24548 29.3936H27.7545C27.9182 29.3942 28.0805 29.3625 28.2319 29.3001C28.3833 29.2378 28.5209 29.146 28.6367 29.0302C28.7524 28.9145 28.8442 28.7769 28.9065 28.6255C28.9689 28.4741 29.0006 28.3118 29 28.1481V17.5265C29 17.1962 28.8688 16.8794 28.6352 16.6458C28.4016 16.4123 28.0848 16.2811 27.7545 16.2811V16.2811ZM10.9603 26.9026H7.47293V21.6765C7.47293 21.2141 7.65664 20.7705 7.98364 20.4435C8.31065 20.1165 8.75416 19.9328 9.21662 19.9328C9.67907 19.9328 10.1226 20.1165 10.4496 20.4435C10.7766 20.7705 10.9603 21.2141 10.9603 21.6765V26.9026ZM11.9567 17.5863H6.47654C6.14621 17.5863 5.82942 17.4551 5.59584 17.2215C5.36227 16.988 5.23105 16.6712 5.23105 16.3408C5.23105 16.0105 5.36227 15.6937 5.59584 15.4601C5.82942 15.2266 6.14621 15.0953 6.47654 15.0953H11.9567C12.287 15.0953 12.6038 15.2266 12.8374 15.4601C13.071 15.6937 13.2022 16.0105 13.2022 16.3408C13.2022 16.6712 13.071 16.988 12.8374 17.2215C12.6038 17.4551 12.287 17.5863 11.9567 17.5863V17.5863ZM11.9567 13.3517H6.47654C6.14621 13.3517 5.82942 13.2204 5.59584 12.9869C5.36227 12.7533 5.23105 12.4365 5.23105 12.1062C5.23105 11.7758 5.36227 11.459 5.59584 11.2255C5.82942 10.9919 6.14621 10.8607 6.47654 10.8607H11.9567C12.287 10.8607 12.6038 10.9919 12.8374 11.2255C13.071 11.459 13.2022 11.7758 13.2022 12.1062C13.2022 12.4365 13.071 12.7533 12.8374 12.9869C12.6038 13.2204 12.287 13.3517 11.9567 13.3517V13.3517ZM23.5398 24.5063C23.5398 24.8366 23.4085 25.1534 23.175 25.387C22.9414 25.6205 22.6246 25.7518 22.2943 25.7518C21.9639 25.7518 21.6471 25.6205 21.4136 25.387C21.18 25.1534 21.0488 24.8366 21.0488 24.5063V21.5171C21.0488 21.1868 21.18 20.87 21.4136 20.6364C21.6471 20.4028 21.9639 20.2716 22.2943 20.2716C22.6246 20.2716 22.9414 20.4028 23.175 20.6364C23.4085 20.87 23.5398 21.1868 23.5398 21.5171V24.5063Z" fill="black"/>
</g>
<defs>
<clipPath id="clip0_46_2">
<rect width="29" height="29.3936" fill="white"/>
</clipPath>
</defs>
</svg>
