<svg width="29" height="29" viewBox="0 0 29 29" fill="none" xmlns="http://www.w3.org/2000/svg">
<path d="M14.9272 19.1993C15.3991 18.7274 16.1642 18.7274 16.6361 19.1993C17.1079 19.6712 17.1079 20.4363 16.6361 20.9082L13.2184 24.3258C10.859 26.6853 7.03358 26.6853 4.67416 24.3258C2.31474 21.9664 2.31474 18.1411 4.67416 15.7816L8.09184 12.364C8.56373 11.8921 9.3288 11.8921 9.80068 12.364C10.2726 12.8358 10.2726 13.6009 9.80068 14.0728L6.383 17.4905C4.96735 18.9061 4.96735 21.2013 6.383 22.617C7.79865 24.0326 10.0939 24.0326 11.5095 22.617L14.9272 19.1993ZM14.9272 8.94627C14.4553 9.41815 13.6903 9.41815 13.2184 8.94627C12.7465 8.47438 12.7465 7.70931 13.2184 7.23743L15.7816 4.67417C18.141 2.31475 21.9664 2.31475 24.3258 4.67417C26.6853 7.03358 26.6853 10.859 24.3258 13.2184L21.7626 15.7816C21.2907 16.2535 20.5256 16.2535 20.0537 15.7816C19.5818 15.3098 19.5818 14.5447 20.0537 14.0728L22.617 11.5095C24.0326 10.0939 24.0326 7.79866 22.617 6.38301C21.2013 4.96736 18.9061 4.96736 17.4905 6.38301L14.9272 8.94627ZM17.0633 10.2279C17.5351 9.75602 18.3002 9.75602 18.7721 10.2279C19.244 10.6998 19.244 11.4649 18.7721 11.9367L11.9367 18.7721C11.4649 19.244 10.6998 19.244 10.2279 18.7721C9.75601 18.3002 9.75601 17.5351 10.2279 17.0633L17.0633 10.2279Z" fill="black"/>
</svg>
