<svg width="29" height="29" viewBox="0 0 29 29" fill="none" xmlns="http://www.w3.org/2000/svg">
<path d="M16.0381 28.1004C15.1451 28.8373 13.8549 28.8373 12.9619 28.1004C6.37632 22.6662 3.02084 17.339 3.02084 12.0833C3.02084 5.74355 8.16024 0.604156 14.5 0.604156C20.8398 0.604156 25.9792 5.74355 25.9792 12.0833C25.9792 17.339 22.6237 22.6662 16.0381 28.1004ZM23.5625 12.0833C23.5625 7.07824 19.5051 3.02082 14.5 3.02082C9.49493 3.02082 5.43751 7.07824 5.43751 12.0833C5.43751 16.487 8.41655 21.2165 14.5 26.2365C20.5835 21.2165 23.5625 16.487 23.5625 12.0833ZM14.5 15.7083C11.8306 15.7083 9.66668 13.5444 9.66668 10.875C9.66668 8.20561 11.8306 6.04166 14.5 6.04166C17.1694 6.04166 19.3333 8.20561 19.3333 10.875C19.3333 13.5444 17.1694 15.7083 14.5 15.7083ZM14.5 13.2917C15.8347 13.2917 16.9167 12.2097 16.9167 10.875C16.9167 9.5403 15.8347 8.45832 14.5 8.45832C13.1653 8.45832 12.0833 9.5403 12.0833 10.875C12.0833 12.2097 13.1653 13.2917 14.5 13.2917Z" fill="black"/>
</svg>
