<svg width="29" height="29" viewBox="0 0 29 29" fill="none" xmlns="http://www.w3.org/2000/svg">
<path d="M27.7917 10.8479C27.7921 10.8663 27.7921 10.8847 27.7917 10.9031V20.5417C27.7917 23.211 25.6277 25.375 22.9583 25.375H6.04167C3.37229 25.375 1.20833 23.211 1.20833 20.5417V10.9031C1.20791 10.8847 1.20791 10.8663 1.20833 10.8479V8.45833C1.20833 5.78896 3.37229 3.625 6.04167 3.625H22.9583C25.6277 3.625 27.7917 5.78896 27.7917 8.45833V10.8479V10.8479ZM25.375 9.97596V8.45833C25.375 7.12365 24.293 6.04167 22.9583 6.04167H6.04167C4.70698 6.04167 3.625 7.12365 3.625 8.45833V9.97596L14.1528 13.1343C14.3793 13.2022 14.6207 13.2022 14.8472 13.1343L25.375 9.97596ZM25.375 12.499L15.5416 15.449C14.8622 15.6529 14.1378 15.6529 13.4584 15.449L3.625 12.499V20.5417C3.625 21.8764 4.70698 22.9583 6.04167 22.9583H22.9583C24.293 22.9583 25.375 21.8764 25.375 20.5417V12.499Z" fill="black"/>
</svg>
