<svg width="21" height="21" viewBox="0 0 21 21" fill="none" xmlns="http://www.w3.org/2000/svg">
<g clip-path="url(#clip0_28_123)">
<path d="M20.6939 19.2203L15.031 13.5468C16.344 11.8562 16.9633 9.72872 16.7629 7.59755C16.5624 5.46638 15.5572 3.49174 13.952 2.07566C12.3467 0.659586 10.2621 -0.0914525 8.12258 -0.0245402C5.98305 0.0423722 3.94945 0.922205 2.43584 2.43582C0.92222 3.94944 0.0423874 5.98303 -0.0245249 8.12256C-0.0914373 10.2621 0.659601 12.3467 2.07568 13.9519C3.49175 15.5572 5.4664 16.5624 7.59757 16.7628C9.72873 16.9633 11.8562 16.344 13.5468 15.031L19.2203 20.6939C19.4253 20.8238 19.6683 20.88 19.9095 20.8533C20.1506 20.8267 20.3755 20.7186 20.5471 20.5471C20.7187 20.3755 20.8267 20.1506 20.8534 19.9095C20.88 19.6683 20.8238 19.4253 20.6939 19.2203ZM2.1 8.39999C2.1 7.15396 2.46949 5.93592 3.16174 4.89989C3.854 3.86387 4.83792 3.05638 5.9891 2.57955C7.14027 2.10271 8.40699 1.97795 9.62907 2.22104C10.8512 2.46413 11.9737 3.06414 12.8548 3.94521C13.7358 4.82629 14.3359 5.94884 14.5789 7.17092C14.822 8.393 14.6973 9.65972 14.2204 10.8109C13.7436 11.9621 12.9361 12.946 11.9001 13.6382C10.8641 14.3305 9.64602 14.7 8.4 14.7C6.72972 14.6981 5.12838 14.0338 3.94731 12.8527C2.76624 11.6716 2.10189 10.0703 2.1 8.39999Z" fill="black"/>
</g>
<defs>
<clipPath id="clip0_28_123">
<rect width="21" height="21" fill="white"/>
</clipPath>
</defs>
</svg>
