<svg width="29" height="24" viewBox="0 0 29 24" fill="none" xmlns="http://www.w3.org/2000/svg">
<g clip-path="url(#clip0_28_259)">
<path d="M9.12271 24.0251C20.0641 24.0251 26.0508 14.7655 26.0508 6.76215C26.0508 6.49687 26.0508 6.26162 26.0508 5.97633C27.2093 5.11909 28.208 4.058 29 2.84306C27.9066 3.33456 26.7467 3.65517 25.5593 3.79405C26.8103 3.04254 27.7489 1.85186 28.1988 0.445566C27.0311 1.14854 25.7547 1.64443 24.4239 1.91209C23.6067 1.02707 22.5475 0.412247 21.3832 0.147255C20.219 -0.117738 19.0035 -0.0206988 17.8941 0.425807C16.7846 0.872312 15.8324 1.64772 15.1606 2.65161C14.4889 3.6555 14.1286 4.84163 14.1264 6.05641C14.1258 6.52156 14.1786 6.98519 14.2837 7.43785C11.9182 7.31821 9.60379 6.6931 7.49097 5.60313C5.37816 4.51316 3.51419 2.98272 2.02017 1.11126C1.25952 2.44484 1.02622 4.02337 1.3677 5.52586C1.70918 7.02835 2.59981 8.342 3.85847 9.19968C2.91373 9.16952 1.98994 8.9086 1.16492 8.43889V8.50897C1.1651 9.90741 1.64053 11.2627 2.5105 12.3447C3.38048 13.4268 4.59137 14.1689 5.93763 14.4451C5.42684 14.5883 4.89944 14.6607 4.36966 14.6604C3.99354 14.6594 3.61834 14.6226 3.24898 14.5503C3.6273 15.7564 4.36673 16.8117 5.36365 17.5683C6.36057 18.325 7.565 18.7451 8.80814 18.7697C6.70562 20.4515 4.10888 21.3646 1.43525 21.3624C0.955617 21.3625 0.476383 21.3341 0 21.2773C2.71798 23.0678 5.88553 24.0219 9.12271 24.0251Z" fill="black"/>
</g>
<defs>
<clipPath id="clip0_28_259">
<rect width="29" height="24" fill="white"/>
</clipPath>
</defs>
</svg>
